<svg width="900" height="900" viewBox="0 0 900 900" fill="none" xmlns="http://www.w3.org/2000/svg">
  <rect width="900" height="900" rx="44" fill="#F3D5DE"/>
  <rect x="48" y="48" width="804" height="804" rx="32" fill="url(#paint0_linear_3_4)"/>
  <circle cx="451" cy="373" r="138" fill="#FFF5F6"/>
  <path d="M322 588C322 507.366 387.366 442 468 442H480C560.634 442 626 507.366 626 588V651H322V588Z" fill="#592136"/>
  <path d="M443.72 196.758C455.89 171.622 491.69 171.622 503.86 196.758L530.759 252.317C535.565 262.24 545.039 269.111 555.975 270.697L617.189 279.58C644.907 283.601 655.973 317.663 635.911 337.016L591.622 379.73C583.71 387.359 580.101 398.47 581.969 409.237L592.425 469.858C597.159 497.432 568.194 518.482 543.403 505.169L488.615 475.739C478.834 470.484 467.745 470.484 457.965 475.739L403.176 505.169C378.386 518.482 349.421 497.432 354.155 469.858L364.611 409.237C366.478 398.47 362.869 387.359 354.958 379.73L310.669 337.016C290.607 317.663 301.673 283.601 329.391 279.58L390.605 270.697C401.541 269.111 411.015 262.24 415.821 252.317L442.72 196.758Z" fill="#F7E8EC" fill-opacity="0.82"/>
  <path d="M238 720C310 630 379 585 474 585C569 585 638 630 710 720" stroke="#F9EDF0" stroke-width="16" stroke-linecap="round"/>
  <defs>
    <linearGradient id="paint0_linear_3_4" x1="112" y1="92" x2="775" y2="812" gradientUnits="userSpaceOnUse">
      <stop stop-color="#BD5C7D"/>
      <stop offset="1" stop-color="#7A2647"/>
    </linearGradient>
  </defs>
</svg>
